<?xml version="1.0" encoding="iso-8859-1"?>
<!-- Generator: Adobe Illustrator 19.0.0, SVG Export Plug-In . SVG Version: 6.00 Build 0)  -->
<svg version="1.1" id="Layer_1" xmlns="http://www.w3.org/2000/svg" xmlns:xlink="http://www.w3.org/1999/xlink" x="0px" y="0px"
	 viewBox="0 0 512 512" style="enable-background:new 0 0 512 512;" xml:space="preserve">
<g>
	<g>
		<path d="M420.693,87.526c-27.671,0-46.059,7.964-57.294,15.53c-4.383-3.857-9.119-7.423-14.229-10.677
			C324.99,76.987,293.643,69.182,256,69.182s-68.99,7.805-93.169,23.198c-5.111,3.254-9.846,6.82-14.229,10.677
			c-11.235-7.566-29.623-15.53-57.294-15.53C40.96,87.526,0,125.658,0,172.53c0,27.892,14.89,42.487,29.289,56.601
			c9.439,9.252,19.199,18.82,27.185,33.769c1.317,2.466,2.559,4.862,3.76,7.175c10.729,20.69,21.823,42.082,54.185,42.082
			c19.387,0,34.268-9.974,43.569-18.674c1.638,1.281,3.322,2.586,5.057,3.929c15.758,12.2,42.132,32.621,42.132,46.165
			c0,5.076-1.161,6.059-4.478,7.572c-7.029,3.206-20.388,4.765-40.843,4.765h-15.673v86.904H213.9
			c67.811,0,77.84-34.932,87.538-68.715c7.423-25.854,15.815-55.002,52.208-80.964c9.275,8.778,24.293,19.018,43.936,19.018
			c32.363,0,43.456-21.392,54.184-42.08c1.2-2.313,2.442-4.71,3.76-7.176c7.987-14.951,17.747-24.519,27.186-33.77
			C497.111,215.017,512,200.424,512,172.53C512,125.658,471.04,87.526,420.693,87.526z M114.417,280.812
			c-12.241,0-15.446-4.123-26.358-25.166c-1.256-2.421-2.558-4.931-3.937-7.513c-10.254-19.198-22.806-31.5-32.892-41.387
			C37.443,193.23,31.347,186.66,31.347,172.53c0-13.523,6.101-27.025,16.738-37.043c11.377-10.714,26.727-16.615,43.222-16.615
			c17.809,0,29.623,4.284,36.858,8.39c-12.518,20.344-18.831,45.667-18.831,75.757c0,32.481,10.818,53.434,25.216,69.399
			C129.526,276.647,122.522,280.812,114.417,280.812z M341.574,263.407c-50.502,33.209-61.925,72.996-70.266,102.048
			c-9.072,31.596-13.212,46.017-57.409,46.017h-38.371v-24.54c17.211-0.802,29.052-3.098,38.179-7.26
			c14.927-6.809,22.816-19.289,22.816-36.093c0-28.919-30.101-52.224-54.289-70.951c-3.819-2.956-7.426-5.749-10.5-8.261
			c-19.667-16.074-31.053-31.264-31.053-61.347c0-39.956,12.752-67.497,38.984-84.198c18.799-11.967,45.195-18.294,76.335-18.294
			s57.535,6.327,76.335,18.294c26.232,16.701,38.985,44.242,38.985,84.198C371.32,229.729,361.034,250.61,341.574,263.407z
			 M460.769,206.746c-10.084,9.886-22.637,22.188-32.891,41.386c-1.379,2.583-2.681,5.093-3.938,7.515
			c-10.912,21.041-14.117,25.164-26.358,25.164c-7.842,0-14.601-3.825-19.556-7.865c16.03-18.183,24.64-42.264,24.64-69.928
			c0-30.086-6.312-55.406-18.827-75.749c7.228-4.078,19.079-8.398,36.854-8.398c16.495,0,31.845,5.901,43.222,16.615
			c10.637,10.017,16.738,23.52,16.738,37.043C480.653,186.66,474.557,193.231,460.769,206.746z"/>
	</g>
</g>
<g>
	<g>
		<path d="M214.21,179.104c-9.905,0-17.94,8.131-17.94,18.164c0,10.032,8.034,18.165,17.94,18.165
			c9.893,0,17.927-8.132,17.927-18.165C232.138,187.236,224.103,179.104,214.21,179.104z"/>
	</g>
</g>
<g>
	<g>
		<path d="M297.802,179.104c-9.905,0-17.94,8.131-17.94,18.164c0,10.032,8.034,18.165,17.94,18.165
			c9.893,0,17.927-8.132,17.927-18.165C315.729,187.236,307.695,179.104,297.802,179.104z"/>
	</g>
</g>
<g>
</g>
<g>
</g>
<g>
</g>
<g>
</g>
<g>
</g>
<g>
</g>
<g>
</g>
<g>
</g>
<g>
</g>
<g>
</g>
<g>
</g>
<g>
</g>
<g>
</g>
<g>
</g>
<g>
</g>
</svg>
