<svg version="1.1" xmlns="http://www.w3.org/2000/svg" viewBox="0 0 768.6883991001546 319.63343496054404" width="768.6883991001546" height="319.63343496054404">
  <!-- svg-source:excalidraw -->
  
  <defs>
    <style>
      @font-face {
        font-family: "Virgil";
        src: url("https://excalidraw.com/Virgil.woff2");
      }
      @font-face {
        font-family: "Cascadia";
        src: url("https://excalidraw.com/Cascadia.woff2");
      }
    </style>
  </defs>
  <rect x="0" y="0" width="768.6883991001546" height="319.63343496054404" fill="#ffffff"></rect><g stroke-linecap="round"><g stroke-opacity="0.4" fill-opacity="0.4" transform="translate(14.49093873299654 70.75000254921613) rotate(0 370.668208418414 0.265870066657655)"><path d="M-0.84 0.75 C122.97 0.83, 618.31 1, 742.18 1.05 M0.92 0.09 C124.61 -0.19, 617.67 -0.38, 741.11 -0.52" stroke="#495057" stroke-width="1" fill="none"></path></g></g><g stroke-linecap="round"><g stroke-opacity="0.4" fill-opacity="0.4" transform="translate(16.09091431893404 130.75000254921613) rotate(0 370.50655642309226 -0.5183810504202029)"><path d="M0.05 -0.11 C123.64 -0.02, 618.54 0.59, 742.4 0.46 M-1.38 -1.21 C121.98 -1.48, 617.42 -1.62, 741.45 -1.42" stroke="#495057" stroke-width="1" fill="none"></path></g></g><g stroke-linecap="round"><g stroke-opacity="0.4" fill-opacity="0.4" transform="translate(15.290957043543415 187.15002696327863) rotate(0 371.27382288121623 0.7018297531362805)"><path d="M0.4 1.19 C124.13 1.05, 619.54 0.17, 743.4 -0.05 M-0.85 0.76 C122.72 0.76, 618.93 1.4, 742.97 1.46" stroke="#495057" stroke-width="1" fill="none"></path></g></g><g stroke-linecap="round"><g stroke-opacity="0.4" fill-opacity="0.4" transform="translate(14.29092652596529 249.75000254921613) rotate(0 370.8600199420005 0.22380991182288312)"><path d="M-0.55 -0.95 C123.18 -0.86, 618.41 -0.22, 742.27 -0.18 M1.37 1.16 C124.94 1.51, 617.82 1.42, 741.25 1.26" stroke="#495057" stroke-width="1" fill="none"></path></g></g><g stroke-linecap="round"><g stroke-opacity="0.4" fill-opacity="0.4" transform="translate(12.090944836512165 10.750002549216134) rotate(0 0.5225448057800577 138.29684742711484)"><path d="M-0.46 -0.75 C-0.51 45.15, 0.68 229.76, 0.63 276.15 M1.5 1.47 C1.27 47.46, -0.03 231.64, 0.01 277.34" stroke="#495057" stroke-width="1" fill="none"></path></g></g><g stroke-linecap="round"><g stroke-opacity="0.4" fill-opacity="0.4" transform="translate(77.49093873299654 12.349993393942697) rotate(0 -0.007055488005278221 139.07014394797383)"><path d="M0.88 0.79 C0.87 46.95, -0.95 232.12, -1.08 277.98 M-0.12 0.16 C0.31 45.94, 1.15 230.37, 1.07 276.48" stroke="#495057" stroke-width="1" fill="none"></path></g></g><g stroke-linecap="round"><g stroke-opacity="0.4" fill-opacity="0.4" transform="translate(138.49093873299654 15.349993393942697) rotate(0 -0.44036995835602966 138.58174935169518)"><path d="M-0.97 0.33 C-1.12 46.39, -0.4 230.42, -0.43 276.38 M0.72 -0.54 C0.33 45.68, -1.67 231.44, -1.6 277.7" stroke="#495057" stroke-width="1" fill="none"></path></g></g><g stroke-linecap="round"><g stroke-opacity="0.4" fill-opacity="0.4" transform="translate(191.49093873299654 19.349993393942697) rotate(0 -0.7174659657472375 138.46257521770897)"><path d="M0.34 -0.59 C0.42 45.29, -0.62 230.13, -0.51 276.26 M-0.94 1.72 C-0.98 47.67, -2 231.6, -1.73 277.51" stroke="#495057" stroke-width="1" fill="none"></path></g></g><g stroke-linecap="round"><g stroke-opacity="0.4" fill-opacity="0.4" transform="translate(250.49093873299654 19.550005600973947) rotate(0 -0.14845679416021085 139.23742853900418)"><path d="M0.42 0.95 C0.67 47.06, 0.36 230.62, 0.45 276.63 M-0.82 0.4 C-0.6 46.7, -0.51 231.74, -0.26 278.08" stroke="#495057" stroke-width="1" fill="none"></path></g></g><g stroke-linecap="round"><g stroke-opacity="0.4" fill-opacity="0.4" transform="translate(309.69088990487154 26.149981186911447) rotate(0 -0.2398978694434959 138.5271129362844)"><path d="M-1.06 0.47 C-1.04 46.47, -0.1 230.24, 0.12 276.17 M0.58 -0.33 C0.46 45.8, -0.6 231.16, -0.76 277.38" stroke="#495057" stroke-width="1" fill="none"></path></g></g><g stroke-linecap="round"><g stroke-opacity="0.4" fill-opacity="0.4" transform="translate(368.89096314705904 22.750017808005197) rotate(0 0.1579189715534426 137.56551212526858)"><path d="M-0.75 -0.42 C-0.84 45.52, 0.37 229.72, 0.57 275.8 M1.06 -1.69 C0.76 44.35, 0.11 230.37, -0.07 276.82" stroke="#495057" stroke-width="1" fill="none"></path></g></g><g stroke-linecap="round"><g stroke-opacity="0.4" fill-opacity="0.4" transform="translate(428.0909753540903 21.550005600973947) rotate(0 0.25481537885963235 138.0531620889157)"><path d="M0.69 -0.33 C0.87 46.09, 0.9 231.33, 0.91 277.65 M-0.41 -1.54 C-0.29 44.62, 0.31 229.77, 0.45 275.97" stroke="#495057" stroke-width="1" fill="none"></path></g></g><g stroke-opacity="0.4" fill-opacity="0.4" transform="translate(98.49093873299654 139.85000865273176) rotate(0 12 23)"><text x="0" y="32" font-family="Virgil, Segoe UI Emoji" font-size="36px" fill="#495057" text-anchor="start" style="white-space: pre;" direction="ltr">P</text></g><g stroke-opacity="0.4" fill-opacity="0.4" transform="translate(153.6909509400278 139.550020859763) rotate(0 12.5 23)"><text x="0" y="32" font-family="Virgil, Segoe UI Emoji" font-size="36px" fill="#495057" text-anchor="start" style="white-space: pre;" direction="ltr">R</text></g><g stroke-opacity="0.4" fill-opacity="0.4" transform="translate(210.49093873299654 136.35000865273176) rotate(0 12 23)"><text x="0" y="32" font-family="Virgil, Segoe UI Emoji" font-size="36px" fill="#495057" text-anchor="start" style="white-space: pre;" direction="ltr">E</text></g><g stroke-opacity="0.4" fill-opacity="0.4" transform="translate(275.2909265259653 136.35000865273176) rotate(0 9 23)"><text x="0" y="32" font-family="Virgil, Segoe UI Emoji" font-size="36px" fill="#495057" text-anchor="start" style="white-space: pre;" direction="ltr">V</text></g><g stroke-opacity="0.4" fill-opacity="0.4" transform="translate(328.89096314705904 140.35000865273176) rotate(0 10 23)"><text x="0" y="32" font-family="Virgil, Segoe UI Emoji" font-size="36px" fill="#495057" text-anchor="start" style="white-space: pre;" direction="ltr">I</text></g><g stroke-opacity="0.4" fill-opacity="0.4" transform="translate(385.69088990487154 138.75000254921613) rotate(0 13 23)"><text x="0" y="32" font-family="Virgil, Segoe UI Emoji" font-size="36px" fill="#495057" text-anchor="start" style="white-space: pre;" direction="ltr">O</text></g><g stroke-opacity="0.4" fill-opacity="0.4" transform="translate(444.89096314705904 139.54999034218488) rotate(0 13 23)"><text x="0" y="32" font-family="Virgil, Segoe UI Emoji" font-size="36px" fill="#495057" text-anchor="start" style="white-space: pre;" direction="ltr">U</text></g><g stroke-opacity="0.4" fill-opacity="0.4" transform="translate(500.89096314705904 137.95001475624738) rotate(0 11 23)"><text x="0" y="32" font-family="Virgil, Segoe UI Emoji" font-size="36px" fill="#495057" text-anchor="start" style="white-space: pre;" direction="ltr">S</text></g><g stroke-opacity="0.4" fill-opacity="0.4" stroke-linecap="round" transform="translate(18.49093873299654 133.1499964457005) rotate(0 29.199996948242188 26)"><path d="M0 0 C0 0, 0 0, 0 0 M0 0 C0 0, 0 0, 0 0 M-0.55 5.7 C1.54 5.55, 1.73 2.9, 4.26 -0.2 M0.1 6.06 C1.7 4.72, 2.95 3.14, 4.69 0.42 M0.9 11.79 C3.25 8.29, 6.56 7.07, 10.46 -0.34 M-0.34 12.69 C4.16 8.15, 7.83 4.22, 10.56 -0.83 M-0.1 19.82 C5.37 12.07, 10.96 8.69, 14.46 1.69 M-0.72 18.59 C3.82 14.72, 6.7 11.24, 15.53 -0.59 M1.9 22.48 C8.5 14.59, 15.85 5.63, 21.65 -0.33 M0.15 23.13 C6.88 16.79, 11.66 11.06, 22.08 -0.04 M-1.02 29.71 C10.94 19.05, 19.95 10.23, 26.08 -0.89 M0.43 31.2 C7.51 21.27, 15.95 11.81, 25.4 0.28 M-1.12 37.89 C9.54 23.71, 21.73 14.51, 30.71 -0.13 M-0.38 37.54 C12.35 21.4, 25.71 7.49, 31.92 -0.58 M-0.93 41.24 C7.39 34.9, 16.2 24.04, 35.86 1.37 M0.02 43.04 C11.25 29.2, 22.1 16.97, 36.61 0.77 M-1.46 49.24 C12.52 34.69, 25.18 18.76, 44.31 1.7 M-0.64 47.95 C12.23 34.5, 23.16 20.16, 41.79 -0.05 M3.57 53.05 C13.08 41.41, 19.55 29.56, 45.88 -1.15 M2.35 52.93 C12.61 39.84, 25.9 24.46, 46.53 -0.29 M8.27 54.73 C19.07 37.81, 31.89 21.68, 54.45 -2.12 M5.96 54.07 C20.38 37.66, 34.58 22.11, 53.48 -0.16 M11.74 51.44 C19.67 42.1, 29.4 32.24, 56.55 0.13 M12.43 53.75 C27.61 33.86, 45.6 15.62, 58.17 0.06 M17.19 52.59 C28.72 42.38, 38.02 28.79, 61.78 1.39 M17.1 53.57 C29.93 38.81, 42.32 24.34, 61.3 2.99 M21.02 51.54 C40.13 33.73, 55.36 15.71, 61.3 10.34 M23.31 52.67 C33.88 40.46, 46.23 25.71, 61.91 8.21 M29.41 54.79 C37.61 42.06, 47.43 30.2, 61.6 15.44 M27.75 52.75 C38.71 39.96, 51.01 27.23, 61.02 13.98 M35.36 53.15 C41.72 43.03, 47.68 35.59, 63.02 19.96 M33.32 53.9 C41.44 43.82, 48.09 34.74, 60.89 19.88 M39.26 54.98 C43.96 46.28, 51.18 39.66, 61.63 25.35 M38.45 53.55 C45.61 44.99, 51.47 37.09, 60.66 26.96 M45.96 53.29 C51.3 45.78, 58.22 40.06, 59.58 33.22 M43.93 52.34 C48.36 49.41, 51.19 44.03, 61.55 33.42 M49.33 54.94 C53.47 48.5, 58.08 44.05, 62.91 40.65 M48.35 53.05 C52.92 48.01, 57.6 44.91, 62.42 38.75 M54.03 52.53 C56.16 50.52, 56.96 49.48, 61.53 45.71 M54.71 52.68 C56.64 50.38, 59.13 47.96, 60.97 45.09" stroke="#000" stroke-width="0.5" fill="none"></path><path d="M-1.9 0.5 C15 0.78, 33.67 -1.36, 57.42 -0.92 M0.4 0.92 C19.25 -0.47, 39.13 -1.18, 59.12 0.06 M60.01 -1.39 C56.78 8.44, 57.83 22, 58.34 53.61 M57.79 0.41 C59.62 13.81, 57.97 25.93, 57.97 51.09 M57.08 51.97 C44.98 50.43, 33.06 50.25, -0.39 53.76 M58.12 52.77 C44.35 53.34, 30.77 53.31, 0.79 52.04 M-0.77 50.16 C-0.18 40.95, 0.37 28.48, -1.7 -1.42 M-0.87 51.71 C-0.53 37.09, -0.5 23.19, -0.02 -0.4" stroke="#495057" stroke-width="1" fill="none"></path></g><g stroke-opacity="0.4" fill-opacity="0.4" stroke-linecap="round" transform="translate(545.2909112671762 135.1499964457005) rotate(0 29.199996948242188 26)"><path d="M0 0 C0 0, 0 0, 0 0 M0 0 C0 0, 0 0, 0 0 M0.45 6.33 C0.84 5.01, 3.44 1.65, 5.64 -0.28 M-0.18 6.48 C1.26 4.48, 2.62 2.75, 4.94 -0.02 M-0.09 13.35 C4.33 8.46, 7.87 3.08, 9.81 -0.65 M0.91 11.98 C3.47 7.79, 7.92 2.81, 10.97 0.54 M0.65 16.74 C3.3 15.11, 5.97 9.67, 14.76 1.34 M0.8 17.85 C3.94 14.8, 7.31 8.5, 15.5 0.99 M-0.02 24.15 C4.93 15.92, 10.21 10.06, 20.19 -1.35 M-0.55 23.57 C6.6 17.27, 12.83 11.15, 21.14 0.46 M0.5 29.94 C10.03 20.29, 18.62 10.88, 24.91 0.62 M-0.07 31.38 C8.47 21.58, 15.86 11.98, 25.73 -0.68 M-2.15 35.41 C11.13 22.65, 20.16 12.15, 33.88 -0.1 M-1.24 36.06 C11.6 22.47, 25.13 8.08, 32.65 -0.22 M-1.5 40.57 C6.6 33.26, 16.38 26.12, 38.57 1.57 M-0.32 43.17 C9.33 30.91, 20.71 19.12, 36.27 0.91 M-0.38 49.58 C14.28 30.14, 28.64 16.63, 42.04 -1.72 M0.35 48.12 C8.66 39.67, 17.68 29.05, 42.74 0.6 M2.73 53.12 C10.62 41.18, 19.82 30.97, 47.49 -0.57 M1.79 53.36 C15.47 35.92, 31.64 19.29, 47.4 0.41 M6.34 53.69 C23.19 36.5, 38.53 16.2, 51.33 -1.62 M5.75 53.29 C25.83 32.43, 42.84 11.51, 53.61 -0.49 M11.07 53.73 C22.28 40.08, 35.35 28.32, 59.72 1.63 M11.68 53.17 C27.58 36.07, 42.03 17.98, 58.06 -0.4 M18.79 52.83 C24.4 42.22, 36.58 33.07, 63.04 3.01 M16.56 54.05 C33.92 34, 50.2 15.03, 61.01 3.77 M21.66 51.39 C33.85 39.34, 46.04 25.66, 62.35 10.12 M23.82 53.09 C30.75 42.91, 39.85 33.71, 61.54 8.7 M26.74 51.81 C39.11 42.21, 49.85 30.23, 63.15 15.23 M28.67 52.55 C39.37 38.89, 51.84 27.05, 61.12 14.28 M33.07 53.72 C43.89 40.75, 54.99 29.31, 61.93 22.25 M32.97 53.66 C44.23 41.7, 52.36 29.32, 60.9 20.26 M40.18 55.13 C44.41 44.85, 49.31 37.39, 60.02 26.2 M38.53 53.55 C45.51 46.51, 51.39 37.83, 61.38 26.49 M45.18 51.6 C46.92 48.32, 52.15 44.93, 61.97 35.08 M44.01 53.1 C49.01 48.79, 52.52 42.84, 61.53 32.47 M47.43 53.48 C53.25 47.83, 59.27 43.92, 61.44 37.45 M48.24 53.91 C52.31 48.56, 56.63 44.47, 62.42 39.54 M53.94 52.98 C56.6 50.27, 57.73 49.21, 61.12 44.38 M54.83 52.56 C56.59 51.07, 58.73 48.57, 61.68 45.75" stroke="#000" stroke-width="0.5" fill="none"></path><path d="M1.79 1.59 C18.98 -2.35, 36.86 1.19, 57.63 -1.84 M-0.84 -0.85 C15.58 -0.34, 32.53 0.45, 57.53 -0.29 M56.79 -0.03 C57.14 11.19, 58.21 23.97, 56.58 50.32 M59.27 0.79 C57.72 16.91, 57.9 35.45, 58.37 52.75 M57.31 53.47 C39.49 50.73, 17.27 51.5, -0.71 50.26 M57.84 51.09 C37.08 51.42, 16.21 50.58, 0.9 51.16 M1.27 50.5 C0.21 30.58, 0.24 13.14, 0.95 -0.32 M0.56 51.89 C0.06 34.88, -0.27 16.89, -0.6 0.82" stroke="#495057" stroke-width="1" fill="none"></path></g><g stroke-linecap="round"><g stroke-opacity="0.4" fill-opacity="0.4" transform="translate(482.6909509400278 21.550005600973947) rotate(0 0.009620864097485082 139.23720193810763)"><path d="M-1.08 1.08 C-1.24 47.59, -1.22 231.88, -1.01 277.87 M0.55 0.61 C0.76 46.9, 1.35 230, 1.17 276.3" stroke="#495057" stroke-width="1" fill="none"></path></g></g><g stroke-linecap="round"><g stroke-opacity="0.4" fill-opacity="0.4" transform="translate(542.8909021119027 16.149981186911447) rotate(0 -0.2155557111651092 138.6902755061537)"><path d="M-0.91 0.77 C-0.83 46.65, -0.37 229.98, -0.19 276.09 M0.81 0.13 C0.78 46.08, -1.02 231.37, -1.24 277.25" stroke="#495057" stroke-width="1" fill="none"></path></g></g><g stroke-linecap="round"><g stroke-opacity="0.4" fill-opacity="0.4" transform="translate(11.29092652596529 307.95001475624736) rotate(0 371.11523158393794 0.2617983227223135)"><path d="M0.11 -1.16 C123.86 -1, 617.44 -0.1, 741.36 0.1 M-1.29 0.85 C122.92 1.3, 619.4 1.6, 743.52 1.68" stroke="#495057" stroke-width="1" fill="none"></path></g></g><g transform="translate(207.29089600838716 193.95007579140363) rotate(0 11.5 23)"><text x="0" y="32" font-family="Virgil, Segoe UI Emoji" font-size="36px" fill="#495057" text-anchor="start" style="white-space: pre;" direction="ltr">N</text></g><g transform="translate(321.69092042244966 190.7500941019505) rotate(0 10 23)"><text x="0" y="32" font-family="Virgil, Segoe UI Emoji" font-size="36px" fill="#495057" text-anchor="start" style="white-space: pre;" direction="ltr">x</text></g><g transform="translate(376.89087159432466 194.74994151405988) rotate(0 14.5 23)"><text x="0" y="32" font-family="Virgil, Segoe UI Emoji" font-size="36px" fill="#495057" text-anchor="start" style="white-space: pre;" direction="ltr">T</text></g><g transform="translate(265.6908593872934 192.7754732828587) rotate(0 12 23)"><text x="0" y="32" font-family="Virgil, Segoe UI Emoji" font-size="36px" fill="#495057" text-anchor="start" style="white-space: pre;" direction="ltr">E</text></g><g stroke-linecap="round" transform="translate(126.09086854256685 195.37550990395246) rotate(0 29.199996948242188 26)"><path d="M0 0 C0 0, 0 0, 0 0 M0 0 C0 0, 0 0, 0 0 M-0.64 7.03 C0.17 4.5, 2.01 4.38, 5.35 -0.25 M-0.45 6.44 C0.81 4.92, 2.25 3.88, 5.1 0.15 M0.36 10.83 C1.54 9.93, 5.45 4.07, 11.45 -1.52 M0.83 12.28 C1.6 10.06, 4.74 7.05, 11.28 -0.49 M1.42 17.23 C4.01 13.96, 10.82 5.53, 16.68 -0.36 M-0.3 19.26 C5.49 13.22, 8.65 7.77, 14.72 0.52 M-1.69 25.02 C6.82 16.64, 17.13 6.76, 20.4 -1.77 M0.83 23.68 C6.91 15.66, 16.01 7.87, 21.68 0.86 M0.08 32.32 C8.81 19.75, 19.13 9.83, 25.01 0.85 M0.4 29.88 C5.76 22.35, 13.7 15.93, 25.77 1.14 M-1.42 36.91 C11.24 24.01, 24.94 7.96, 32.56 1.8 M0.08 37.64 C7.52 27.91, 14.12 19.37, 32.1 -1.04 M-1.65 43.4 C14.73 28.72, 25.5 13.05, 37.46 -0.12 M0.88 42.4 C8.82 31.71, 17.51 21.03, 36.83 -0.25 M0.49 48.69 C15.21 33.05, 26.79 15.81, 43.6 1.6 M-0.24 48.45 C10.68 37.67, 20.9 24.39, 42.01 0.68 M0.37 52.35 C17.35 34.44, 33.37 18.06, 48.88 -1.65 M1.11 54.02 C10.64 42.66, 20.45 32.02, 46.92 -0.46 M8.18 53.84 C22.99 34.42, 40.27 15.95, 54.27 1.6 M6.1 54.21 C24.37 32.93, 42.94 11.72, 52.87 0.67 M14.14 52.73 C25.84 40.28, 38.26 23.14, 56.39 0.09 M11.69 53.98 C28.85 35.25, 42.37 17.3, 58.64 -0.15 M15.53 53.83 C26.93 41.04, 35.71 29.73, 61.96 2.03 M16.41 52.95 C32.69 34.07, 49.81 15.99, 60.59 3.22 M21.87 54.92 C35.13 37.77, 48.15 26.25, 62.22 9.48 M23.31 53.84 C37.59 35.32, 51.43 20.08, 62 9.44 M27.41 51.89 C37.63 40.52, 51.38 26.91, 62.74 13.34 M27.28 53.37 C38.22 42.15, 47.76 29.39, 60.58 15.29 M32.24 53.97 C39.8 44.08, 50.68 33.23, 61.97 20.26 M33.92 52.18 C42.74 40.53, 52.59 30.18, 61.78 20.4 M38.87 52.9 C44.6 46.75, 49.93 43.71, 61.07 28.11 M38.86 53.76 C43.42 47.48, 48.98 39.33, 60.47 27.38 M45.22 54.14 C49.55 45.84, 56.21 37.95, 62.27 31.9 M44.62 52.27 C49.02 48.82, 52.07 43.21, 62.05 33.47 M49.26 53.97 C54.54 47.49, 59.73 40.66, 62.75 39.19 M49.88 53.55 C51.43 50.01, 54.35 47.5, 62.11 38.71 M54.4 51.89 C55.79 50.91, 56.73 49.5, 61.99 44.48 M54.65 52.93 C56.49 50.38, 58.18 48.23, 61.23 45.19" stroke="#000" stroke-width="0.5" fill="none"></path><path d="M0 -0.09 C12.14 0.74, 24.13 0.48, 60.18 1.12 M-0.76 0.35 C21.7 -0.21, 45.63 1.11, 58.81 0.35 M58.8 -1.98 C58.2 19.16, 59.6 35.7, 58.72 53.51 M57.5 -0.68 C57.73 16.71, 59.16 31.88, 59.39 51.31 M57.91 52.45 C45.7 51.41, 34.44 53.92, -0.39 53.28 M58.29 52.07 C39.54 51.63, 20.58 50.75, -0.64 52.54 M-1.66 51.23 C-2.38 31.69, 0.18 10.91, 1.99 -1.14 M0.05 52.86 C-0.45 34.8, -0.45 16.86, 0.32 0.76" stroke="#495057" stroke-width="1" fill="none"></path></g><g stroke-linecap="round" transform="translate(419.89091737069185 191.5754915934056) rotate(0 29.199996948242188 26)"><path d="M0 0 C0 0, 0 0, 0 0 M0 0 C0 0, 0 0, 0 0 M-0.8 6.57 C0.58 5.24, 2.72 3.9, 4.59 -0.04 M0.01 6.69 C1.06 4.55, 2.59 3.65, 5.33 0.1 M-0.75 11.96 C3.5 8.71, 7.81 2.44, 9.68 -1.04 M0.35 12.28 C2.46 9.84, 4.39 7.71, 10.73 -0.36 M-1.16 19.14 C2.92 13.5, 6.8 9.91, 17.14 0.34 M0.28 17.64 C4.6 12.87, 8.01 8.49, 15.42 0.34 M-1.53 23.28 C6.17 14.57, 17.25 5.17, 21.96 -1.33 M0.9 23.79 C8.96 15.84, 16.59 5.52, 21.63 -0.22 M1.82 30.9 C8.25 17.64, 21.74 6.33, 26.33 0.47 M-0.3 30.88 C7.75 22.89, 14.42 14.32, 27.1 1.02 M0.47 36.08 C6.64 26.91, 17.53 20.99, 31.34 -1.98 M-1.06 36.84 C8.16 26.77, 16.1 18.26, 31.37 -0.51 M1.52 41.9 C7.96 31.06, 16.54 20.86, 35.27 0.29 M0.26 42.72 C9.87 30.15, 21.74 19.06, 36.07 0.89 M1.43 47.94 C13.74 33.07, 30.21 15.4, 40.67 -1.87 M0.35 48.79 C15.63 30.35, 30.1 11.7, 42.85 0 M1.74 54.62 C16.29 35.38, 30.67 20.35, 48.94 -0.5 M1.44 52.67 C14.37 37.44, 28.19 22.32, 47.65 0.7 M7.63 54.45 C17.92 41.75, 26.9 27.21, 51.34 -1.4 M5.65 53.29 C20.93 36.57, 36.03 19.94, 52.57 0.77 M11.11 54.23 C30.06 34.28, 46.7 13.22, 59.62 -0.93 M12.94 52.8 C21.94 42.48, 32.23 30.57, 58.24 -0.14 M16.08 54.2 C28.42 40.48, 40.36 26.91, 62.4 2.24 M17.96 52.45 C29.81 39.19, 41.8 25.23, 61 3.41 M21.48 53.72 C30.5 45.27, 39.32 33.27, 61.67 7.47 M21.98 53.98 C37.39 35.32, 51.88 17.97, 61.17 7.72 M27.8 54.5 C38.75 42.45, 46.64 31.28, 60.54 13.14 M27.19 53.54 C36.57 42.86, 47.39 31.95, 61.6 14.69 M32.18 53.74 C43.04 41.03, 48.93 31.97, 59.84 21.56 M32.58 52.62 C40.33 44.57, 49.43 33.35, 62.01 21.43 M38.98 51.37 C43.91 49.37, 45.96 41.19, 61.87 28.47 M38.28 53.93 C45.73 44.73, 53.28 36.75, 61.57 27.46 M42.82 51.18 C47.08 49.23, 50.53 44.36, 62.88 34.92 M43.37 52.3 C51.22 45.08, 56.21 39.68, 61.13 33.31 M47.23 52.11 C53.12 48.57, 54.59 44.96, 60.93 40.62 M48.33 52.66 C51.16 50.08, 55.7 46.54, 61.82 39.68 M55 53 C56.79 51.32, 59.51 49.18, 61.41 44.6 M54.67 52.8 C57.32 49.65, 60.08 47.13, 61 45.56" stroke="#000" stroke-width="0.5" fill="none"></path><path d="M-1.39 1.05 C19.1 -0.52, 40.83 -0.08, 57.82 0.64 M-0.13 0.63 C21.66 0.46, 41.13 -0.64, 59.29 -0.39 M56.62 0.24 C59.88 14.19, 59.27 23.08, 59.99 52.49 M58.92 0.28 C58.5 17.49, 58.22 32.75, 59.33 51.95 M58.38 50.91 C42.47 51.46, 26.09 53.43, 0.57 50.52 M59.03 52.97 C40.23 51.13, 20.94 51.7, 0.74 52.93 M0.95 50.06 C0.82 36.56, -0.59 17.09, 0.07 1.85 M0.49 51.29 C-0.44 33.18, 0.7 14, -0.12 0.28" stroke="#495057" stroke-width="1" fill="none"></path></g></svg>