<svg version="1.1" xmlns="http://www.w3.org/2000/svg" viewBox="0 0 768.6883991001546 320.4834232560545" width="768.6883991001546" height="320.4834232560545" filter="invert(93%) hue-rotate(180deg)">
  <!-- svg-source:excalidraw -->
  
  <defs>
    <style>
      @font-face {
        font-family: "Virgil";
        src: url("https://excalidraw.com/Virgil.woff2");
      }
      @font-face {
        font-family: "Cascadia";
        src: url("https://excalidraw.com/Cascadia.woff2");
      }
    </style>
  </defs>
  <rect x="0" y="0" width="768.6883991001546" height="320.4834232560545" fill="#ffffff"></rect><g stroke-linecap="round"><g transform="translate(14.49093873299654 71.59999084472656) rotate(0 370.668208418414 0.265870066657655)"><path d="M-0.84 0.75 C122.97 0.83, 618.31 1, 742.18 1.05 M0.92 0.09 C124.61 -0.19, 617.67 -0.38, 741.11 -0.52" stroke="#000000" stroke-width="1" fill="none"></path></g></g><g stroke-linecap="round"><g transform="translate(16.09091431893404 131.59999084472656) rotate(0 370.50655642309226 -0.5183810504202029)"><path d="M0.05 -0.11 C123.64 -0.02, 618.54 0.59, 742.4 0.46 M-1.38 -1.21 C121.98 -1.48, 617.42 -1.62, 741.45 -1.42" stroke="#000000" stroke-width="1" fill="none"></path></g></g><g stroke-linecap="round"><g transform="translate(15.290957043543415 188.00001525878906) rotate(0 371.27382288121623 0.7018297531362805)"><path d="M0.4 1.19 C124.13 1.05, 619.54 0.17, 743.4 -0.05 M-0.85 0.76 C122.72 0.76, 618.93 1.4, 742.97 1.46" stroke="#000000" stroke-width="1" fill="none"></path></g></g><g stroke-linecap="round"><g transform="translate(14.29092652596529 250.59999084472656) rotate(0 370.8600199420005 0.22380991182288312)"><path d="M-0.55 -0.95 C123.18 -0.86, 618.41 -0.22, 742.27 -0.18 M1.37 1.16 C124.94 1.51, 617.82 1.42, 741.25 1.26" stroke="#000000" stroke-width="1" fill="none"></path></g></g><g stroke-linecap="round"><g transform="translate(12.090944836512165 11.599990844726562) rotate(0 0.5225448057800577 138.29684742711484)"><path d="M-0.46 -0.75 C-0.51 45.15, 0.68 229.76, 0.63 276.15 M1.5 1.47 C1.27 47.46, -0.03 231.64, 0.01 277.34" stroke="#000000" stroke-width="1" fill="none"></path></g></g><g stroke-linecap="round"><g transform="translate(77.49093873299654 13.199981689453125) rotate(0 -0.007055488005278221 139.07014394797383)"><path d="M0.88 0.79 C0.87 46.95, -0.95 232.12, -1.08 277.98 M-0.12 0.16 C0.31 45.94, 1.15 230.37, 1.07 276.48" stroke="#000000" stroke-width="1" fill="none"></path></g></g><g stroke-linecap="round"><g transform="translate(138.49093873299654 16.199981689453125) rotate(0 -0.44036995835602966 138.58174935169518)"><path d="M-0.97 0.33 C-1.12 46.39, -0.4 230.42, -0.43 276.38 M0.72 -0.54 C0.33 45.68, -1.67 231.44, -1.6 277.7" stroke="#000000" stroke-width="1" fill="none"></path></g></g><g stroke-linecap="round"><g transform="translate(191.49093873299654 20.199981689453125) rotate(0 -0.7174659657472375 138.46257521770897)"><path d="M0.34 -0.59 C0.42 45.29, -0.62 230.13, -0.51 276.26 M-0.94 1.72 C-0.98 47.67, -2 231.6, -1.73 277.51" stroke="#000000" stroke-width="1" fill="none"></path></g></g><g stroke-linecap="round"><g transform="translate(250.49093873299654 20.399993896484375) rotate(0 -0.14845679416021085 139.23742853900418)"><path d="M0.42 0.95 C0.67 47.06, 0.36 230.62, 0.45 276.63 M-0.82 0.4 C-0.6 46.7, -0.51 231.74, -0.26 278.08" stroke="#000000" stroke-width="1" fill="none"></path></g></g><g stroke-linecap="round"><g transform="translate(309.69088990487154 26.999969482421875) rotate(0 -0.2398978694434959 138.5271129362844)"><path d="M-1.06 0.47 C-1.04 46.47, -0.1 230.24, 0.12 276.17 M0.58 -0.33 C0.46 45.8, -0.6 231.16, -0.76 277.38" stroke="#000000" stroke-width="1" fill="none"></path></g></g><g stroke-linecap="round"><g transform="translate(368.89096314705904 23.600006103515625) rotate(0 0.1579189715534426 137.56551212526858)"><path d="M-0.75 -0.42 C-0.84 45.52, 0.37 229.72, 0.57 275.8 M1.06 -1.69 C0.76 44.35, 0.11 230.37, -0.07 276.82" stroke="#000000" stroke-width="1" fill="none"></path></g></g><g stroke-linecap="round"><g transform="translate(428.0909753540903 22.399993896484375) rotate(0 0.25481537885963235 138.0531620889157)"><path d="M0.69 -0.33 C0.87 46.09, 0.9 231.33, 0.91 277.65 M-0.41 -1.54 C-0.29 44.62, 0.31 229.77, 0.45 275.97" stroke="#000000" stroke-width="1" fill="none"></path></g></g><g transform="translate(98.49093873299654 140.6999969482422) rotate(0 12 23)"><text x="0" y="32" font-family="Virgil, Segoe UI Emoji" font-size="36px" fill="#000000" text-anchor="start" style="white-space: pre;" direction="ltr">P</text></g><g transform="translate(153.6909509400278 140.40000915527344) rotate(0 12.5 23)"><text x="0" y="32" font-family="Virgil, Segoe UI Emoji" font-size="36px" fill="#000000" text-anchor="start" style="white-space: pre;" direction="ltr">R</text></g><g transform="translate(210.49093873299654 137.1999969482422) rotate(0 12 23)"><text x="0" y="32" font-family="Virgil, Segoe UI Emoji" font-size="36px" fill="#000000" text-anchor="start" style="white-space: pre;" direction="ltr">E</text></g><g transform="translate(275.2909265259653 137.1999969482422) rotate(0 9 23)"><text x="0" y="32" font-family="Virgil, Segoe UI Emoji" font-size="36px" fill="#000000" text-anchor="start" style="white-space: pre;" direction="ltr">V</text></g><g transform="translate(328.89096314705904 141.1999969482422) rotate(0 10 23)"><text x="0" y="32" font-family="Virgil, Segoe UI Emoji" font-size="36px" fill="#000000" text-anchor="start" style="white-space: pre;" direction="ltr">I</text></g><g transform="translate(385.69088990487154 139.59999084472656) rotate(0 13 23)"><text x="0" y="32" font-family="Virgil, Segoe UI Emoji" font-size="36px" fill="#000000" text-anchor="start" style="white-space: pre;" direction="ltr">O</text></g><g transform="translate(444.89096314705904 140.3999786376953) rotate(0 13 23)"><text x="0" y="32" font-family="Virgil, Segoe UI Emoji" font-size="36px" fill="#000000" text-anchor="start" style="white-space: pre;" direction="ltr">U</text></g><g transform="translate(500.89096314705904 138.8000030517578) rotate(0 11 23)"><text x="0" y="32" font-family="Virgil, Segoe UI Emoji" font-size="36px" fill="#000000" text-anchor="start" style="white-space: pre;" direction="ltr">S</text></g><g stroke-linecap="round" transform="translate(18.49093873299654 133.99998474121094) rotate(0 29.199996948242188 26)"><path d="M0 0 C0 0, 0 0, 0 0 M0 0 C0 0, 0 0, 0 0 M-0.55 5.7 C1.54 5.55, 1.73 2.9, 4.26 -0.2 M0.1 6.06 C1.7 4.72, 2.95 3.14, 4.69 0.42 M0.9 11.79 C3.25 8.29, 6.56 7.07, 10.46 -0.34 M-0.34 12.69 C4.16 8.15, 7.83 4.22, 10.56 -0.83 M-0.1 19.82 C5.37 12.07, 10.96 8.69, 14.46 1.69 M-0.72 18.59 C3.82 14.72, 6.7 11.24, 15.53 -0.59 M1.9 22.48 C8.5 14.59, 15.85 5.63, 21.65 -0.33 M0.15 23.13 C6.88 16.79, 11.66 11.06, 22.08 -0.04 M-1.02 29.71 C10.94 19.05, 19.95 10.23, 26.08 -0.89 M0.43 31.2 C7.51 21.27, 15.95 11.81, 25.4 0.28 M-1.12 37.89 C9.54 23.71, 21.73 14.51, 30.71 -0.13 M-0.38 37.54 C12.35 21.4, 25.71 7.49, 31.92 -0.58 M-0.93 41.24 C7.39 34.9, 16.2 24.04, 35.86 1.37 M0.02 43.04 C11.25 29.2, 22.1 16.97, 36.61 0.77 M-1.46 49.24 C12.52 34.69, 25.18 18.76, 44.31 1.7 M-0.64 47.95 C12.23 34.5, 23.16 20.16, 41.79 -0.05 M3.57 53.05 C13.08 41.41, 19.55 29.56, 45.88 -1.15 M2.35 52.93 C12.61 39.84, 25.9 24.46, 46.53 -0.29 M8.27 54.73 C19.07 37.81, 31.89 21.68, 54.45 -2.12 M5.96 54.07 C20.38 37.66, 34.58 22.11, 53.48 -0.16 M11.74 51.44 C19.67 42.1, 29.4 32.24, 56.55 0.13 M12.43 53.75 C27.61 33.86, 45.6 15.62, 58.17 0.06 M17.19 52.59 C28.72 42.38, 38.02 28.79, 61.78 1.39 M17.1 53.57 C29.93 38.81, 42.32 24.34, 61.3 2.99 M21.02 51.54 C40.13 33.73, 55.36 15.71, 61.3 10.34 M23.31 52.67 C33.88 40.46, 46.23 25.71, 61.91 8.21 M29.41 54.79 C37.61 42.06, 47.43 30.2, 61.6 15.44 M27.75 52.75 C38.71 39.96, 51.01 27.23, 61.02 13.98 M35.36 53.15 C41.72 43.03, 47.68 35.59, 63.02 19.96 M33.32 53.9 C41.44 43.82, 48.09 34.74, 60.89 19.88 M39.26 54.98 C43.96 46.28, 51.18 39.66, 61.63 25.35 M38.45 53.55 C45.61 44.99, 51.47 37.09, 60.66 26.96 M45.96 53.29 C51.3 45.78, 58.22 40.06, 59.58 33.22 M43.93 52.34 C48.36 49.41, 51.19 44.03, 61.55 33.42 M49.33 54.94 C53.47 48.5, 58.08 44.05, 62.91 40.65 M48.35 53.05 C52.92 48.01, 57.6 44.91, 62.42 38.75 M54.03 52.53 C56.16 50.52, 56.96 49.48, 61.53 45.71 M54.71 52.68 C56.64 50.38, 59.13 47.96, 60.97 45.09" stroke="#000" stroke-width="0.5" fill="none"></path><path d="M-1.9 0.5 C15 0.78, 33.67 -1.36, 57.42 -0.92 M0.4 0.92 C19.25 -0.47, 39.13 -1.18, 59.12 0.06 M60.01 -1.39 C56.78 8.44, 57.83 22, 58.34 53.61 M57.79 0.41 C59.62 13.81, 57.97 25.93, 57.97 51.09 M57.08 51.97 C44.98 50.43, 33.06 50.25, -0.39 53.76 M58.12 52.77 C44.35 53.34, 30.77 53.31, 0.79 52.04 M-0.77 50.16 C-0.18 40.95, 0.37 28.48, -1.7 -1.42 M-0.87 51.71 C-0.53 37.09, -0.5 23.19, -0.02 -0.4" stroke="#000000" stroke-width="1" fill="none"></path></g><g stroke-linecap="round" transform="translate(545.2909112671762 135.99998474121094) rotate(0 29.199996948242188 26)"><path d="M0 0 C0 0, 0 0, 0 0 M0 0 C0 0, 0 0, 0 0 M0.45 6.33 C0.84 5.01, 3.44 1.65, 5.64 -0.28 M-0.18 6.48 C1.26 4.48, 2.62 2.75, 4.94 -0.02 M-0.09 13.35 C4.33 8.46, 7.87 3.08, 9.81 -0.65 M0.91 11.98 C3.47 7.79, 7.92 2.81, 10.97 0.54 M0.65 16.74 C3.3 15.11, 5.97 9.67, 14.76 1.34 M0.8 17.85 C3.94 14.8, 7.31 8.5, 15.5 0.99 M-0.02 24.15 C4.93 15.92, 10.21 10.06, 20.19 -1.35 M-0.55 23.57 C6.6 17.27, 12.83 11.15, 21.14 0.46 M0.5 29.94 C10.03 20.29, 18.62 10.88, 24.91 0.62 M-0.07 31.38 C8.47 21.58, 15.86 11.98, 25.73 -0.68 M-2.15 35.41 C11.13 22.65, 20.16 12.15, 33.88 -0.1 M-1.24 36.06 C11.6 22.47, 25.13 8.08, 32.65 -0.22 M-1.5 40.57 C6.6 33.26, 16.38 26.12, 38.57 1.57 M-0.32 43.17 C9.33 30.91, 20.71 19.12, 36.27 0.91 M-0.38 49.58 C14.28 30.14, 28.64 16.63, 42.04 -1.72 M0.35 48.12 C8.66 39.67, 17.68 29.05, 42.74 0.6 M2.73 53.12 C10.62 41.18, 19.82 30.97, 47.49 -0.57 M1.79 53.36 C15.47 35.92, 31.64 19.29, 47.4 0.41 M6.34 53.69 C23.19 36.5, 38.53 16.2, 51.33 -1.62 M5.75 53.29 C25.83 32.43, 42.84 11.51, 53.61 -0.49 M11.07 53.73 C22.28 40.08, 35.35 28.32, 59.72 1.63 M11.68 53.17 C27.58 36.07, 42.03 17.98, 58.06 -0.4 M18.79 52.83 C24.4 42.22, 36.58 33.07, 63.04 3.01 M16.56 54.05 C33.92 34, 50.2 15.03, 61.01 3.77 M21.66 51.39 C33.85 39.34, 46.04 25.66, 62.35 10.12 M23.82 53.09 C30.75 42.91, 39.85 33.71, 61.54 8.7 M26.74 51.81 C39.11 42.21, 49.85 30.23, 63.15 15.23 M28.67 52.55 C39.37 38.89, 51.84 27.05, 61.12 14.28 M33.07 53.72 C43.89 40.75, 54.99 29.31, 61.93 22.25 M32.97 53.66 C44.23 41.7, 52.36 29.32, 60.9 20.26 M40.18 55.13 C44.41 44.85, 49.31 37.39, 60.02 26.2 M38.53 53.55 C45.51 46.51, 51.39 37.83, 61.38 26.49 M45.18 51.6 C46.92 48.32, 52.15 44.93, 61.97 35.08 M44.01 53.1 C49.01 48.79, 52.52 42.84, 61.53 32.47 M47.43 53.48 C53.25 47.83, 59.27 43.92, 61.44 37.45 M48.24 53.91 C52.31 48.56, 56.63 44.47, 62.42 39.54 M53.94 52.98 C56.6 50.27, 57.73 49.21, 61.12 44.38 M54.83 52.56 C56.59 51.07, 58.73 48.57, 61.68 45.75" stroke="#000" stroke-width="0.5" fill="none"></path><path d="M1.79 1.59 C18.98 -2.35, 36.86 1.19, 57.63 -1.84 M-0.84 -0.85 C15.58 -0.34, 32.53 0.45, 57.53 -0.29 M56.79 -0.03 C57.14 11.19, 58.21 23.97, 56.58 50.32 M59.27 0.79 C57.72 16.91, 57.9 35.45, 58.37 52.75 M57.31 53.47 C39.49 50.73, 17.27 51.5, -0.71 50.26 M57.84 51.09 C37.08 51.42, 16.21 50.58, 0.9 51.16 M1.27 50.5 C0.21 30.58, 0.24 13.14, 0.95 -0.32 M0.56 51.89 C0.06 34.88, -0.27 16.89, -0.6 0.82" stroke="#000000" stroke-width="1" fill="none"></path></g><g stroke-linecap="round"><g transform="translate(482.6909509400278 22.399993896484375) rotate(0 0.009620864097485082 139.23720193810763)"><path d="M-1.08 1.08 C-1.24 47.59, -1.22 231.88, -1.01 277.87 M0.55 0.61 C0.76 46.9, 1.35 230, 1.17 276.3" stroke="#000000" stroke-width="1" fill="none"></path></g></g><g stroke-linecap="round"><g transform="translate(542.8909021119027 16.999969482421875) rotate(0 -0.2155557111651092 138.6902755061537)"><path d="M-0.91 0.77 C-0.83 46.65, -0.37 229.98, -0.19 276.09 M0.81 0.13 C0.78 46.08, -1.02 231.37, -1.24 277.25" stroke="#000000" stroke-width="1" fill="none"></path></g></g><g stroke-linecap="round"><g transform="translate(11.29092652596529 308.8000030517578) rotate(0 371.11523158393794 0.2617983227223135)"><path d="M0.11 -1.16 C123.86 -1, 617.44 -0.1, 741.36 0.1 M-1.29 0.85 C122.92 1.3, 619.4 1.6, 743.52 1.68" stroke="#000000" stroke-width="1" fill="none"></path></g></g><g transform="translate(211.2909265259653 77.20002746582031) rotate(0 11.5 23)"><text x="0" y="32" font-family="Virgil, Segoe UI Emoji" font-size="36px" fill="#000000" text-anchor="start" style="white-space: pre;" direction="ltr">N</text></g><g transform="translate(208.0909753540903 194.8000030517578) rotate(0 10 23)"><text x="0" y="32" font-family="Virgil, Segoe UI Emoji" font-size="36px" fill="#000000" text-anchor="start" style="white-space: pre;" direction="ltr">x</text></g><g transform="translate(207.2909265259653 251.59999084472656) rotate(0 14.5 23)"><text x="0" y="32" font-family="Virgil, Segoe UI Emoji" font-size="36px" fill="#000000" text-anchor="start" style="white-space: pre;" direction="ltr">T</text></g><g stroke-linecap="round" transform="translate(192.09094483651216 10) rotate(0 27.199996948242188 28)"><path d="M0 0 C0 0, 0 0, 0 0 M0 0 C0 0, 0 0, 0 0 M-0.52 5.78 C1.14 5.85, 2.68 3.76, 4.46 -0.29 M-0.33 6.14 C0.54 5.16, 2.12 3.99, 5.18 0.26 M-1.11 12.28 C1.94 10.21, 3.85 5.85, 10.4 0.35 M-0.23 12.7 C2.96 7.84, 7.25 4.45, 11.22 -0.12 M1.3 20.17 C3.03 11.77, 8.81 8.09, 15.42 1.42 M-0.32 19.22 C6.05 11.06, 12.04 5.16, 14.94 1.01 M-0.92 22.36 C4.96 16.89, 9.76 13.46, 19.68 -0.52 M0.25 23.62 C6.21 17.3, 12.13 9.67, 22.1 0.02 M0.13 28.92 C7.2 21.24, 17.93 8.47, 24.97 -1.29 M-0.48 31.03 C9.97 19.73, 20.82 7.78, 26.37 -0.13 M-1.14 38.36 C11.14 23.62, 24.04 8.17, 30.66 -0.71 M-0.43 36 C6.18 29.68, 13.36 21.33, 31.02 -0.31 M1.06 43.77 C12.46 28.45, 27.2 11.52, 37.55 1.28 M-0.64 42.41 C8.5 34.32, 15.54 24.33, 37.74 -0.68 M-0.89 48.88 C13.78 33.65, 30.64 14.53, 44.35 -1.56 M0.66 48.41 C8.12 38.27, 17.27 27.68, 42.81 -1.09 M-0.2 54.63 C16.31 38.33, 30.72 21.29, 47.59 2.06 M-0.43 54.69 C14.43 39.38, 28.33 22.07, 47.72 -0.45 M2.86 55.98 C20.31 40.5, 34.22 23.9, 54.07 -1.24 M1.81 58.1 C19.06 38.2, 36.26 18.36, 53.34 0.81 M7.51 58.44 C19.02 44.14, 30.24 33.29, 55.47 -0.19 M6.93 58.02 C22.77 41.9, 35.91 24.79, 57.29 0.89 M11.66 58.21 C25.37 43.51, 36.78 27.79, 56.14 7.68 M12.27 57.18 C28.85 40.74, 44.68 22.7, 57.38 8.94 M18.4 58.2 C26.66 46.69, 38.18 35.87, 55.53 15.83 M19.16 57.5 C32.61 40.43, 49.4 22.6, 56.84 13.6 M23.14 59.53 C33.63 44.7, 42.98 34.58, 58.23 19.07 M24.77 58.43 C34.46 46.15, 44.02 33.97, 55.99 19.14 M27.57 59.46 C35.83 49.76, 41.68 42.18, 56.39 25.86 M29.8 58.56 C39.46 47.18, 50.04 35.12, 55.47 26.62 M34.05 59.1 C41.59 49.15, 50.69 39.49, 57.59 32.84 M33.6 58.2 C39.04 52.05, 44.77 46.41, 57.73 32.1 M39.61 57.29 C42.08 53, 48.64 46.6, 56.71 36.71 M39.82 59 C44.51 51.02, 50.34 45.48, 55.71 39.36 M46.15 58.29 C46.37 55.68, 49.39 52.7, 55.84 44.75 M45.56 58.37 C48.7 53.41, 53.38 48.27, 56.34 44.27 M50.73 58.1 C51.21 56.44, 53.82 54.44, 55.87 50.68 M49.73 57.92 C52.88 55.35, 54.88 52.36, 56.57 50.85" stroke="#000" stroke-width="0.5" fill="none"></path><path d="M-1.22 1.56 C15.03 -0.97, 30.45 -0.32, 54.11 1.62 M0.27 -0.1 C18.27 -0.93, 35.88 -0.1, 54.91 -0.26 M52.47 0.04 C53.54 16.69, 53.81 28.46, 53.35 57.51 M55.16 -0.94 C55.17 16.4, 55.6 33.81, 54.12 55.5 M54.64 55.28 C37.6 55.34, 22.89 55.28, -0.1 54.87 M53.69 56.39 C37.25 57.43, 21.19 55.68, -0.07 55.47 M0.57 55.26 C-1.15 33.02, -1.52 12.35, 1.32 -0.12 M0.47 56.11 C0.29 34.46, -1.31 11.21, -0.82 0.83" stroke="#000000" stroke-width="1" fill="none"></path></g></svg>